<?xml version="1.0" encoding="UTF-8"?>
<svg id="Layer_1" data-name="Layer 1" xmlns="http://www.w3.org/2000/svg" version="1.1" viewBox="0 0 2267.72 2267.72">
  <defs>
    <style>
      .cls-1 {
        fill: #d6c09c;
        stroke-width: 0px;
      }
    </style>
  </defs>
  <path class="cls-1" d="M1862.14,1497.29c-9.01,0-17.77-3.07-24.8-8.71-78.41-62.95-132.7-121.3-171.55-158.97-98.25-94.32-160.47-155.02-186.67-182.09l-9.87-10.28c-3.24-3.37-3.14-8.72.21-11.98l252.67-245.64c30.38-29.5,54.56-49,72.58-58.55,4.97-2.63,6.11-9.23,2.26-13.33l-.13-.14c-1.91-2.03-4.68-2.99-7.43-2.58l-128.84,19.2c-1.76.26-3.39,1.06-4.67,2.31-38.96,37.94-80.84,79.41-125.69,124.48-49.35,49.34-87.34,86.67-113.97,112l-5.83,5.83c-3.3,3.3-8.64,3.32-11.97.05l-75.87-74.65c-101.31-100.87-188.64-171.07-262-210.58-73.36-39.53-152.62-59.28-237.77-59.28-92.14,0-174.88,26.42-248.24,79.26-53.28,37.99-94.76,88.31-124.45,150.98-29.7,62.65-44.54,131.33-44.54,206,0,109.6,39.19,199.78,117.57,270.51,78.37,70.74,178.26,106.11,299.66,106.11,79.03,0,154.91-18.45,227.61-55.35,72.71-36.91,152.06-97.49,238.09-181.76l43.23-39.3,108.73-106.25c3.28-3.21,8.52-3.23,11.83-.05l11.09,10.67,102.83,102.84,93.67,91.04c61.57,60.69,113.32,114.63,155.23,161.78,0,0,14.03,19.46,45.37,22.46M1381.29,1097.85l-91.47,89.62-30.78,31.44c-109.61,106.54-198.9,179.57-267.89,219.1-69,39.51-141.48,59.28-217.46,59.28-102.62,0-188.21-35.59-256.76-106.76-53.28-55.46-79.91-127.3-79.91-215.5,0-100,36.24-184.94,108.73-254.79,92.13-89.08,201.52-133.62,328.16-133.62,80.78,0,153.49,17.79,218.11,53.38,64.62,35.59,147.15,103.59,247.59,204.03l41.75,41.75c3.34,3.34,3.31,8.77-.06,12.08Z"/>
</svg>